<?xml version="1.0" encoding="UTF-8" standalone="no"?>
<!-- Created with Inkscape (http://www.inkscape.org/) -->

<svg xmlns:dc="http://purl.org/dc/elements/1.1/" xmlns:cc="http://creativecommons.org/ns#" xmlns:rdf="http://www.w3.org/1999/02/22-rdf-syntax-ns#" xmlns:svg="http://www.w3.org/2000/svg" xmlns="http://www.w3.org/2000/svg" xmlns:sodipodi="http://sodipodi.sourceforge.net/DTD/sodipodi-0.dtd" xmlns:inkscape="http://www.inkscape.org/namespaces/inkscape" id="svg2" sodipodi:docname="island_changed.svg" viewBox="0 0 388.01 404.59" version="1.1" inkscape:version="0.92.5 (2060ec1f9f, 2020-04-08)" inkscape:export-filename="/home/asia/projekty/escape/dresden/src/map/island_changed.png" inkscape:export-xdpi="600" inkscape:export-ydpi="600">
  <defs id="defs4">
    <filter id="filter3792" height="1.3286" width="1.0734" color-interpolation-filters="sRGB" y="-.16429" x="-.036702" inkscape:collect="always">
      <feGaussianBlur id="feGaussianBlur3794" stdDeviation="3.1849103" inkscape:collect="always" />
    </filter>
    <linearGradient id="linearGradient3819" y2="340.6" gradientUnits="userSpaceOnUse" x2="354.67" gradientTransform="matrix(1.0002 0 0 .95807 -.056070 20.356)" y1="288.86" x1="355.43" inkscape:collect="always">
      <stop id="stop3815" style="stop-color:#333333" offset="0" />
      <stop id="stop3817" style="stop-color:#333333;stop-opacity:0" offset="1" />
    </linearGradient>
    <radialGradient id="radialGradient3829" gradientUnits="userSpaceOnUse" cy="187.06" cx="314.1" gradientTransform="matrix(.57980 -.0077730 .0049097 .33603 131.35 219.56)" r="104.13" inkscape:collect="always">
      <stop id="stop3825" style="stop-color:#94be30" offset="0" />
      <stop id="stop3827" style="stop-color:#94be30;stop-opacity:0" offset="1" />
    </radialGradient>
    <linearGradient id="linearGradient3839" y2="261.67" spreadMethod="reflect" gradientUnits="userSpaceOnUse" x2="317.7" gradientTransform="matrix(1.0002 0 0 .95807 -.056070 20.356)" y1="246.41" x1="281.89" inkscape:collect="always">
      <stop id="stop3835" style="stop-color:#0f0f0f" offset="0" />
      <stop id="stop3837" style="stop-color:#0f0f0f;stop-opacity:0" offset="1" />
    </linearGradient>
    <linearGradient id="linearGradient3849" y2="230.66" gradientUnits="userSpaceOnUse" x2="385.76" gradientTransform="matrix(1.0002 0 0 .95807 -.056070 20.356)" y1="190.86" x1="387.35" inkscape:collect="always">
      <stop id="stop3845" style="stop-color:#ededed" offset="0" />
      <stop id="stop3847" style="stop-color:#ededed;stop-opacity:0" offset="1" />
    </linearGradient>
    <radialGradient id="radialGradient3867" gradientUnits="userSpaceOnUse" cy="511.38" cx="316.16" gradientTransform="matrix(1.8677 -.033919 .017785 .89859 -283.43 -3.5324)" r="149.88" inkscape:collect="always">
      <stop id="stop3863" style="stop-color:#1f1e1a" offset="0" />
      <stop id="stop3865" style="stop-color:#1f1e1a;stop-opacity:0" offset="1" />
    </radialGradient>
  </defs>
  <sodipodi:namedview id="base" bordercolor="#666666" inkscape:pageshadow="2" inkscape:window-y="28" fit-margin-left="0" pagecolor="#ffffff" fit-margin-top="0" inkscape:window-maximized="1" inkscape:zoom="1.5076923" inkscape:window-x="2048" inkscape:window-height="997" showgrid="false" borderopacity="1.0" inkscape:current-layer="layer1" inkscape:cx="264.03196" inkscape:cy="221.62132" fit-margin-right="0" fit-margin-bottom="0" inkscape:window-width="1920" inkscape:pageopacity="0.0" inkscape:document-units="px" />
  <g id="layer1" inkscape:label="Layer 1" inkscape:groupmode="layer" transform="translate(-124.03,-93.281)">
    <path id="path3853" style="fill:#2c5884" inkscape:connector-curvature="0" d="m 466.06,318.82 c -0.41942,0.21312 -0.82803,0.44728 -1.2502,0.65867 0.10667,0.50818 0.15628,1.013 0.15628,1.5269 0,18.074 -66.681,32.724 -148.93,32.724 -81.746,0 -148.06,-14.474 -148.87,-32.395 -0.30099,-0.14413 -0.60676,-0.27415 -0.90641,-0.41916 9.0979,75.433 72.673,133.86 149.78,133.86 77.815,0 141.86,-59.514 150.03,-135.96 z" />
    <path id="path3859" style="fill:url(#radialGradient3867)" inkscape:connector-curvature="0" d="m 466.06,318.82 c -0.41942,0.21312 -0.82803,0.44728 -1.2502,0.65867 0.10667,0.50818 0.15628,1.013 0.15628,1.5269 0,18.074 -66.681,32.724 -148.93,32.724 -81.746,0 -148.06,-14.474 -148.87,-32.395 -0.30099,-0.14413 -0.60676,-0.27415 -0.90641,-0.41916 9.0979,75.433 72.673,133.86 149.78,133.86 77.815,0 141.86,-59.514 150.03,-135.96 z" />
    <ellipse id="path3760" style="fill:#336699" transform="matrix(1.0002,0,0,0.95807,-0.05607,20.356)" cx="316.04593" cy="313.81625" rx="148.90306" ry="34.158165" />
    <path id="path3808" style="fill:url(#linearGradient3819)" d="m 305.11,376.46 -20.698,-22.536 -25.606,-17.33 -15.994,-13.621 c -25.684,-6.4754 -22.058,-4.8831 -34.641,-8.5131 l 47.928,-8.1954 54.208,-8.4534 36.93,8.1341 31.478,-5.3777 37.652,4.6628 c -6.499,2.4224 -12.584,4.825 -19.568,7.2834 -1.1639,0.40974 -2.3488,0.81968 -3.568,1.2335 -1.2192,0.41385 -2.4685,0.82858 -3.7549,1.2474 l -17.376,12.665 -36.95,41.935 -15.274,-2.7948 -14.767,9.6606 z" inkscape:transform-center-x="-104.03745" inkscape:transform-center-y="21.924242" inkscape:connector-curvature="0" />
    <path id="path3762" style="fill:#4281c0;filter:url(#filter3792)" d="m 242.09,290.94 c 20.644,0.85687 41.288,-11.155 61.932,12.105 2.954,7.1346 2.6947,18.911 20.81,4.1454 9.0128,-13.187 13.271,-41.101 34.987,-20.893 l 17.659,10.115 c 9.3512,-2.7057 -11.139,-33.372 11.441,-10.281 10.53,4.256 18.71,8.5119 27.608,12.768 l -37.143,12.27 -31.837,-4.9745 -36.148,17.908 -54.719,-7.2959 -48.418,-7.6276 c 12.251,-7.5142 8.747,-4.4396 33.827,-18.24 z" sodipodi:nodetypes="ccccccccccccc" inkscape:connector-curvature="0" transform="matrix(1.0002,0,0,0.95807,-0.05607,20.356)" />
    <path id="rect2985" sodipodi:nodetypes="ccccccccccccccc" style="fill:#333333" inkscape:connector-curvature="0" d="m 242.08,297.18 14.843,-23.353 24.131,-30.343 18.823,-37.968 15.507,13.503 15.009,-6.1957 40.218,61.798 18.326,17.952 c 10.531,4.0775 18.713,8.155 27.613,12.232 l -37.149,11.756 -31.842,-4.7659 -36.154,17.157 -54.729,-6.99 -4.6437,-9.2141 c 12.253,-7.1991 4.1049,-5.5243 -9.9507,-15.569 z" />
    <path id="path3831" d="m 242.08,297.18 14.843,-23.353 24.131,-30.343 18.823,-37.968 15.507,13.503 15.009,-6.1957 40.218,61.798 18.326,17.952 c 10.531,4.0775 18.713,8.155 27.613,12.232 l -37.149,11.756 -31.842,-4.7659 -36.154,17.157 -54.729,-6.99 -4.6437,-9.2141 c 12.253,-7.1991 4.1049,-5.5243 -9.9507,-15.569 z" sodipodi:nodetypes="ccccccccccccccc" style="opacity:0.37167999;fill:url(#linearGradient3839)" inkscape:connector-curvature="0" />
    <path id="path3758" d="m 309.74,230.46 -6.3851,-6.8311 -22.306,19.858 18.823,-37.968 15.507,13.503 15.009,-6.1957 40.218,61.798 13.682,15.41 c 10.531,4.0775 -39.001,-12.815 -30.101,-8.7375 l -13.268,-44.164 -9.9507,-2.8595 -10.282,-12.074 0.3317,27.325 -68.992,63.228 c 12.253,-7.1991 71.77,-72.247 57.714,-82.291 z" sodipodi:nodetypes="ccccccccccccccc" style="fill:#9f9f9f" inkscape:connector-curvature="0" />
    <path id="path3756" d="m 242.08,297.18 c 20.648,0.82094 41.296,-10.687 61.943,11.597 2.9545,6.8354 2.6952,18.118 20.814,3.9716 9.0144,-12.634 13.273,-39.378 34.993,-20.017 l 17.663,9.6907 c 9.3529,-2.5923 -11.141,-31.972 11.443,-9.8495 10.531,4.0775 18.713,8.155 27.613,12.232 l -37.149,11.756 -31.842,-4.7659 -36.154,17.157 -54.729,-6.99 -48.427,-7.3077 c 12.253,-7.1991 8.7486,-4.2534 33.833,-17.475 z" sodipodi:nodetypes="ccccccccccccc" style="fill:#445500" inkscape:connector-curvature="0" />
    <path id="path3821" sodipodi:nodetypes="ccccccccccccc" style="opacity:0.38496004;fill:url(#radialGradient3829)" inkscape:connector-curvature="0" d="m 242.08,297.18 c 20.648,0.82094 41.296,-10.687 61.943,11.597 2.9545,6.8354 2.6952,18.118 20.814,3.9716 9.0144,-12.634 13.273,-39.378 34.993,-20.017 l 17.663,9.6907 c 9.3529,-2.5923 -11.141,-31.972 11.443,-9.8495 10.531,4.0775 18.713,8.155 27.613,12.232 l -37.149,11.756 -31.842,-4.7659 -36.154,17.157 -54.729,-6.99 -48.427,-7.3077 c 12.253,-7.1991 8.7486,-4.2534 33.833,-17.475 z" />
    <path id="path3841" sodipodi:nodetypes="ccccccccccccccc" style="fill:url(#linearGradient3849)" inkscape:connector-curvature="0" d="m 309.74,230.46 -6.3851,-6.8311 -22.306,19.858 18.823,-37.968 15.507,13.503 15.009,-6.1957 40.218,61.798 13.682,15.41 c 10.531,4.0775 -39.001,-12.815 -30.101,-8.7375 l -13.268,-44.164 -9.9507,-2.8595 -10.282,-12.074 0.3317,27.325 -68.992,63.228 c 12.253,-7.1991 71.77,-72.247 57.714,-82.291 z" />
  </g>
  <metadata id="metadata52">
    <rdf:RDF>
      <cc:Work>
        <dc:format>image/svg+xml</dc:format>
        <dc:type rdf:resource="http://purl.org/dc/dcmitype/StillImage" />
        <cc:license rdf:resource="http://creativecommons.org/publicdomain/zero/1.0/" />
        <dc:publisher>
          <cc:Agent rdf:about="http://openclipart.org/">
            <dc:title>Openclipart</dc:title>
          </cc:Agent>
        </dc:publisher>
        <dc:title></dc:title>
      </cc:Work>
      <cc:License rdf:about="http://creativecommons.org/publicdomain/zero/1.0/">
        <cc:permits rdf:resource="http://creativecommons.org/ns#Reproduction" />
        <cc:permits rdf:resource="http://creativecommons.org/ns#Distribution" />
        <cc:permits rdf:resource="http://creativecommons.org/ns#DerivativeWorks" />
      </cc:License>
    </rdf:RDF>
  </metadata>
</svg>
